ply
format ascii 1.0
comment Annie Hui's pig from AIM@SHAPE.net
element vertex 606
property float x
property float y
property float z
element face 1208
property list uchar int vertex_indices
end_header
0.181392 -0.279513 0.170195
0.163667 -0.263456 0.176398
0.212707 -0.247721 0.324982
0.207866 -0.272819 0.305311
0.220639 -0.265861 0.449808
0.198126 -0.29847 0.423779
0.157558 -0.265423 0.579454
0.143204 -0.359216 0.530016
0.071354 -0.277694 0.635818
0.0623115 -0.405215 0.582587
4.00322e-05 -0.275241 0.657083
3.46744e-05 -0.412239 0.598747
0.0806491 -0.303997 0.0710231
-0.00013795 -0.31446 0.047647
-0.000145106 -0.204716 0.0499269
0.0997111 -0.276131 0.0898168
0.11723 -0.399813 0.0558815
-0.000136188 -0.356278 0.0400833
0.18802 -0.350023 0.15751
0.199815 -0.345146 0.300291
0.184085 -0.388184 0.415395
-0.000136188 -0.43922 0.0185823
0.242859 -0.408595 0.184456
0.237243 -0.463945 0.0940826
0.230913 -0.40953 0.293191
0.20311 -0.434055 0.396141
0.0709125 -0.581448 0.488818
0.123973 -0.50175 0.480678
2.40122e-05 -0.556602 0.525563
0.130477 -0.488889 0.0189143
0.2282 -0.53123 0.0580565
0.275182 -0.517218 0.138197
0.26015 -0.564611 0.0901292
0.270424 -0.482375 0.214066
0.258977 -0.496378 0.290553
0.13705 -0.564765 0.0108576
-0.000132646 -0.513001 0.00906785
0.224135 -0.611556 0.0485545
0.276563 -0.616416 0.142316
0.258882 -0.658532 0.0988694
0.201798 -0.707534 0.0736559
0.1706 -0.668146 0.0345795
0.107374 -0.62946 0.0126558
-0.000129086 -0.579118 0.00369848
0.0872921 -0.671788 0.0161428
-0.000125526 -0.637048 0
0.127303 -0.70831 0.0494101
0.280435 -0.598374 0.182756
0.264188 -0.567589 0.245302
0.361763 -0.522654 0.31006
0.240833 -0.493128 0.365888
0.191319 -0.502939 0.429261
0.169284 -0.463206 0.444875
0.165557 -0.444115 0.459941
0.111642 -0.600734 0.458031
0.147812 -0.531348 0.460824
7.9922e-06 -0.679478 0.439626
0.0903768 -0.710247 0.389882
0.144056 -0.690676 0.357769
0.314609 -0.535833 0.396135
0.268889 -0.584205 0.454151
0.226431 -0.679948 0.449049
0.359805 -0.607583 0.439959
0.435471 -0.539434 0.385934
0.468826 -0.57957 0.44387
0.369479 -0.716363 0.416541
0.474398 -0.657496 0.41872
0.252485 -0.722639 0.378323
0.371772 -0.719592 0.389124
-6.23e-06 -0.71779 0.382955
0.0984901 -0.739462 0.311852
0.16487 -0.719141 0.26396
0.141885 -0.738625 0.0767228
0.133743 -0.722219 0.0593448
0.109891 -0.802803 0.0506314
0.102776 -0.794216 0.0407134
0.100608 -0.768148 0.0322983
0.0842305 -0.7575 0.0275368
0.0667278 -0.748469 0.013954
-0.000116626 -0.71663 0.00680191
0.0455262 -0.769182 0.0166903
-0.000113066 -0.747737 0.0109486
-0.000109506 -0.772087 0.0202489
0.0652076 -0.781103 0.0282929
0.0816246 -0.794377 0.0356691
-0.00010235 -0.789115 0.0399881
-9.70456e-05 -0.79788 0.0523525
0.0388476 -0.819578 0.0622087
0.0597074 -0.820422 0.0645503
0.0950226 -0.826883 0.0776584
0.0534774 -0.826411 0.0726322
0.108622 -0.756674 0.125602
0.0568701 -0.845489 0.101555
0.039718 -0.839316 0.0878507
-7.387e-05 -0.838519 0.119237
-8.989e-05 -0.820035 0.074954
0.033933 -0.824571 0.0712611
0.189455 -0.713308 0.124801
0.131776 -0.738283 0.118461
0.102983 -0.736521 0.144271
0.111762 -0.706122 0.182966
0.152243 -0.697926 0.172154
0.239174 -0.679574 0.143856
0.197675 -0.68011 0.176136
0.241614 -0.653967 0.185996
0.207618 -0.665375 0.197085
0.224822 -0.665465 0.21747
0.238476 -0.599534 0.288511
0.21032 -0.615663 0.33262
0.202531 -0.687149 0.243899
0.204135 -0.626888 0.343403
-2.58456e-05 -0.728143 0.314149
0.0933067 -0.735444 0.258294
-4.36278e-05 -0.7266 0.252367
0.0519395 -0.741487 0.222561
-5.96478e-05 -0.760539 0.189611
0.0501738 -0.76868 0.16729
0.0795366 -0.729682 0.174403
0.0874665 -0.707959 0.205444
0.113526 -0.707507 0.233564
0.147319 -0.703089 0.240086
0.180906 -0.687828 0.233917
0.204398 -0.669341 0.21226
0.100525 -0.696363 0.203367
0.115259 -0.699999 0.18866
0.146043 -0.695686 0.180412
0.180788 -0.683775 0.183078
0.18082 -0.667979 0.20143
0.184546 -0.667249 0.209652
0.166141 -0.683815 0.226105
0.145293 -0.699277 0.228897
0.114405 -0.69635 0.224357
0.151053 -0.703379 0.205063
0.246173 -0.652705 0.368319
0.242677 -0.604045 0.363102
0.29214 -0.571615 0.331724
0.365558 -0.593386 0.360826
0.294908 -0.606074 0.372714
0.327638 -0.663481 0.374382
0.403698 -0.615853 0.376475
0.0592909 -0.19059 0.678265
4.35922e-05 -0.178577 0.693867
0.0827887 -0.0115487 0.690143
3.46744e-05 -0.00437519 0.710151
0.0853198 0.0807337 0.701664
2.937e-05 0.0720455 0.714273
0.094259 0.204054 0.725259
2.75722e-05 0.203345 0.744198
0.0850564 0.334163 0.743826
2.22144e-05 0.340195 0.762563
0.0879204 0.45319 0.735795
1.335e-05 0.440384 0.757716
0.142333 -0.199397 0.632972
0.152675 -0.0124351 0.651343
0.168392 0.0985818 0.661793
0.178364 0.196078 0.670304
0.217848 0.290252 0.659908
0.227828 0.442535 0.643915
0.281853 0.278695 0.53617
0.297804 0.429987 0.544354
0.224712 0.17577 0.530324
0.23824 0.122487 0.529708
0.239331 0.00107514 0.512345
0.219259 -0.196464 0.534304
0.237844 -0.231512 0.458765
0.27432 -0.139363 0.46916
0.256896 -0.0837151 0.495203
0.331198 0.421785 0.397102
0.301287 0.275151 0.406796
0.253587 0.188555 0.409717
0.26246 0.135168 0.39378
0.259516 0.0180688 0.370811
0.268952 -0.0219279 0.378772
0.235472 -0.00996444 0.24878
0.300164 -0.115533 0.369884
0.2612 -0.229953 0.353588
0.294966 -0.100598 0.219389
0.265974 -0.222527 0.203214
0.196766 -0.2508 0.201131
0.220231 0.133539 0.239358
0.215497 0.260907 0.251592
0.266349 0.317354 0.259047
0.288014 0.406262 0.239346
0.269285 0.471664 0.185061
0.256711 0.494651 0.240804
0.288425 0.560462 0.37691
0.260052 0.581287 0.510776
0.198789 0.584855 0.615764
0.0761867 0.558167 0.714387
-9.256e-07 0.532952 0.732805
0.272115 0.278873 0.189987
0.288927 0.35469 0.166895
0.279119 0.408049 0.12791
0.318211 0.254389 0.076171
0.284231 0.313446 0.0514534
0.299377 0.198283 0.104075
0.231315 0.246922 0.195344
0.164498 0.216256 0.162756
0.171011 0.143384 0.174947
0.18922 -0.0247954 0.158304
0.294874 -0.104511 0.164264
0.262814 -0.228447 0.168849
0.203827 -0.254745 0.160535
0.225564 -0.279704 0.118132
0.27968 -0.249376 0.122271
0.302985 -0.152541 0.0883297
0.211194 -0.0738932 0.0589023
0.104912 -0.0209648 0.097319
0.110551 0.141483 0.124749
0.10317 0.214061 0.11405
0.170345 0.169485 0.0962001
0.252343 0.172516 0.117478
0.166107 -0.264579 0.157215
0.169847 -0.271649 0.112816
0.144799 -0.271849 0.147758
0.158702 -0.284812 0.0822335
0.236554 -0.28802 0.0831507
0.286978 -0.260503 0.0804606
0.306536 -0.200508 0.0578701
0.162059 -0.289439 0.0645124
0.229094 -0.298508 0.0662587
0.241116 -0.290688 0.0643837
0.25746 -0.289649 0.0699278
0.233386 -0.313387 0.00928626
0.245992 -0.306386 0.00928217
0.267086 -0.305752 0.00927647
0.29287 -0.269001 0.0675585
0.29745 -0.290516 0.00926668
0.305189 -0.196937 0.00926526
0.174443 -0.304111 0.00930317
0.143777 -0.274421 0.0693524
0.122938 -0.234645 0.0630896
0.146055 -0.248207 0.00931154
0.0954712 -0.119844 0.0867038
0.127807 -0.126426 0.0520121
0.161271 -0.136366 0.00930726
-0.00014685 -0.119716 0.0660893
-0.00015397 -0.0220435 0.070334
0.224201 -0.12381 0.00928911
-0.00016643 0.138374 0.0687137
-0.00016999 0.256457 0.0904373
0.134126 0.212174 0.0648513
0.146847 0.185264 0.0710904
0.177917 0.156966 0.0772214
0.160965 0.210425 0.00930726
0.211796 0.127297 0.00929196
0.241826 0.149511 0.0942478
0.250895 0.15471 0.0963793
0.266527 0.155974 0.0953024
0.30798 0.18292 0.0935182
0.241396 0.117291 0.00928341
0.252821 0.122282 0.00928074
0.266677 0.127108 0.00927647
0.310915 0.151916 0.00926241
0.321593 0.252217 0.00925974
-0.00016999 0.402634 0.129452
0.0852575 0.360859 0.107839
0.164548 0.285818 0.00930584
-0.00015397 0.553308 0.220585
0.137162 0.5223 0.178666
0.154656 0.478578 0.132097
0.176976 0.413074 0.0860456
0.201193 0.330445 0.00929605
0.289 0.294191 0.00926953
0.24432 0.492695 0.162117
0.2201 0.531447 0.222609
0.256305 0.364815 0.0274933
0.24489 0.331571 0.00928217
0.224076 0.645962 0.32718
0.126265 0.679768 0.299926
-0.000143308 0.63826 0.282926
0.181002 0.697294 0.469014
0.110558 0.725396 0.437743
0.130664 0.689994 0.578201
-0.000113066 0.713235 0.40217
0.0524966 0.661477 0.650222
-2.76078e-05 0.645006 0.67444
-3.827e-05 0.676936 0.644599
0.0574557 0.712222 0.617268
0.0171619 0.700665 0.615045
-7.92278e-05 0.723101 0.519612
0.0570321 0.739994 0.538998
0.124903 0.323339 0.0585732
0.189085 0.37176 0.0476709
-0.181598 -0.279542 0.170301
-0.163873 -0.263483 0.176496
-0.212828 -0.247755 0.325108
-0.207994 -0.272853 0.305434
-0.220684 -0.265895 0.449938
-0.198179 -0.298501 0.423896
-0.157524 -0.265448 0.579548
-0.143184 -0.359241 0.530102
-0.0712864 -0.277707 0.635859
-0.0622546 -0.405226 0.582624
-0.0809108 -0.30401 0.0710706
-0.0999657 -0.276147 0.0898758
-0.117486 -0.399832 0.0559516
-0.188223 -0.350051 0.157623
-0.199934 -0.345176 0.300409
-0.184128 -0.388213 0.415504
-0.243037 -0.408633 0.1846
-0.237467 -0.463982 0.0942227
-0.231027 -0.409567 0.293328
-0.203159 -0.434087 0.396262
-0.0708823 -0.581458 0.488861
-0.12396 -0.50177 0.480753
-0.13074 -0.488909 0.0189928
-0.228435 -0.531266 0.0581923
-0.27537 -0.517263 0.138359
-0.26036 -0.564652 0.0902832
-0.270573 -0.482417 0.214227
-0.259078 -0.496417 0.290708
-0.137307 -0.564787 0.0109388
-0.224361 -0.61159 0.0486875
-0.276734 -0.616458 0.14248
-0.259073 -0.658573 0.0990234
-0.201994 -0.707566 0.0737764
-0.170826 -0.668173 0.0346805
-0.10762 -0.629477 0.0127202
-0.0875288 -0.671802 0.0161946
-0.127515 -0.70833 0.0494844
-0.280582 -0.598418 0.182922
-0.264304 -0.567631 0.245458
-0.361847 -0.522711 0.310275
-0.24089 -0.493165 0.36603
-0.191337 -0.502969 0.429373
-0.1693 -0.463233 0.444977
-0.165566 -0.444142 0.460041
-0.111628 -0.60075 0.458097
-0.147809 -0.531369 0.460911
-0.0903857 -0.710259 0.389936
-0.144088 -0.690697 0.357855
-0.314641 -0.535883 0.396322
-0.268881 -0.584248 0.454309
-0.22641 -0.679983 0.449185
-0.3598 -0.60764 0.440173
-0.435509 -0.539502 0.386192
-0.468824 -0.579645 0.444147
-0.369471 -0.71642 0.41676
-0.474398 -0.657571 0.419001
-0.252499 -0.72268 0.378472
-0.371779 -0.71965 0.389345
-0.0985399 -0.739478 0.311909
-0.164952 -0.719166 0.264058
-0.142075 -0.738647 0.0768068
-0.133946 -0.72224 0.0594246
-0.110085 -0.802821 0.0506958
-0.102977 -0.794232 0.0407737
-0.10082 -0.768164 0.0323584
-0.0844477 -0.757513 0.0275857
-0.0669521 -0.748479 0.0139945
-0.0457469 -0.76919 0.0167185
-0.0654195 -0.781114 0.0283323
-0.0818311 -0.794389 0.035718
-0.0390327 -0.819583 0.0622325
-0.0598908 -0.820432 0.0645866
-0.0951989 -0.826897 0.0777143
-0.0536554 -0.826418 0.0726644
-0.10878 -0.756692 0.125667
-0.0570286 -0.8455 0.101589
-0.0398854 -0.839323 0.0878731
-0.0341128 -0.824576 0.0712821
-0.189619 -0.71334 0.124913
-0.13194 -0.738305 0.11854
-0.103132 -0.736536 0.144331
-0.111893 -0.706142 0.183032
-0.152381 -0.697952 0.172243
-0.239334 -0.679613 0.143997
-0.197816 -0.680142 0.176254
-0.241753 -0.654004 0.186138
-0.20775 -0.665407 0.19721
-0.22494 -0.665501 0.217603
-0.238564 -0.599572 0.288652
-0.210377 -0.615695 0.332744
-0.202631 -0.687181 0.24402
-0.204185 -0.62692 0.343522
-0.0933904 -0.735459 0.258349
-0.0520428 -0.741495 0.222591
-0.0503055 -0.768689 0.16732
-0.0796701 -0.729695 0.174449
-0.087584 -0.707974 0.205496
-0.113627 -0.707523 0.233632
-0.147419 -0.703112 0.240174
-0.181013 -0.687856 0.234024
-0.204518 -0.669373 0.212381
-0.100646 -0.69638 0.203426
-0.115389 -0.700017 0.188728
-0.146178 -0.695711 0.180497
-0.180922 -0.683803 0.183187
-0.180947 -0.668009 0.201539
-0.184669 -0.667279 0.209761
-0.166249 -0.68384 0.226204
-0.145398 -0.699298 0.228983
-0.114514 -0.696368 0.224426
-0.151173 -0.703404 0.205154
-0.246205 -0.652742 0.368465
-0.24272 -0.604082 0.363246
-0.292206 -0.571661 0.331897
-0.365603 -0.593445 0.361041
-0.294943 -0.60612 0.372889
-0.327663 -0.663532 0.374576
-0.40373 -0.615917 0.376716
-0.0592108 -0.190597 0.678301
-0.08273 -0.0115611 0.690193
-0.08527 0.0807212 0.701715
-0.0942127 0.20404 0.725314
-0.0850208 0.334149 0.743878
-0.087908 0.453177 0.735847
-0.142278 -0.199421 0.633055
-0.152639 -0.0124582 0.651435
-0.168369 0.0985551 0.661893
-0.178352 0.196047 0.670409
-0.217857 0.290218 0.660038
-0.227869 0.442499 0.64405
-0.281932 0.27865 0.536337
-0.2979 0.429941 0.54453
-0.224778 0.175736 0.530458
-0.238297 0.12245 0.529851
-0.239381 0.00103774 0.512487
-0.219265 -0.1965 0.534436
-0.237887 -0.231549 0.458905
-0.274374 -0.139406 0.469324
-0.256942 -0.0837561 0.495354
-0.331382 0.421732 0.397298
-0.301442 0.275103 0.406974
-0.253726 0.188516 0.409868
-0.262601 0.135127 0.393937
-0.259651 0.0180278 0.370964
-0.269076 -0.0219705 0.37893
-0.235675 -0.0100018 0.248921
-0.30028 -0.115581 0.370062
-0.261307 -0.229994 0.353743
-0.295173 -0.100645 0.219565
-0.266171 -0.222568 0.203372
-0.19696 -0.25083 0.201249
-0.220463 0.133505 0.239488
-0.215742 0.260871 0.25172
-0.2666 0.317312 0.259204
-0.288288 0.406217 0.239517
-0.269601 0.47162 0.18522
-0.256999 0.49461 0.240955
-0.288642 0.560415 0.377081
-0.260194 0.581247 0.510931
-0.19887 0.584824 0.615882
-0.0762027 0.558155 0.714431
-0.2724 0.27883 0.190147
-0.289235 0.354644 0.167067
-0.279459 0.408005 0.128077
-0.318559 0.254339 0.0763588
-0.284602 0.313401 0.0516214
-0.2997 0.198235 0.104253
-0.231591 0.246884 0.195481
-0.164788 0.216231 0.162854
-0.171281 0.143356 0.175047
-0.189473 -0.0248239 0.158416
-0.295112 -0.104557 0.164438
-0.26303 -0.22849 0.169004
-0.204042 -0.254777 0.160656
-0.225803 -0.279738 0.118265
-0.27992 -0.249422 0.122436
-0.30326 -0.152589 0.0885103
-0.211501 -0.0739269 0.0590269
-0.105204 -0.0209808 0.0973806
-0.110852 0.141465 0.124815
-0.103488 0.214043 0.114112
-0.170669 0.169458 0.0963023
-0.252652 0.172475 0.117628
-0.166324 -0.264606 0.157313
-0.170087 -0.271676 0.112917
-0.145021 -0.27187 0.147843
-0.15896 -0.284837 0.0823273
-0.236812 -0.288057 0.0832908
-0.287241 -0.260547 0.0806315
-0.306823 -0.200556 0.0580522
-0.162328 -0.289464 0.0646076
-0.229359 -0.298543 0.0663947
-0.241383 -0.290726 0.0645278
-0.257725 -0.28969 0.0700806
-0.233683 -0.313424 0.00942492
-0.246291 -0.306423 0.00942777
-0.267385 -0.305795 0.00943471
-0.293138 -0.269049 0.067732
-0.29775 -0.290564 0.00944308
-0.305504 -0.196987 0.00944593
-0.174742 -0.30414 0.00940677
-0.144044 -0.274444 0.0694378
-0.123216 -0.234664 0.0631624
-0.146363 -0.248232 0.0093984
-0.0957542 -0.11986 0.0867597
-0.128109 -0.126446 0.0520878
-0.161595 -0.136391 0.00940249
-0.224528 -0.123845 0.00942207
-0.134473 0.212151 0.0649312
-0.147187 0.185239 0.071177
-0.178248 0.156937 0.0773278
-0.161344 0.210398 0.00940249
-0.212163 0.127263 0.00941798
-0.242147 0.149472 0.0943922
-0.251212 0.154671 0.0965278
-0.26685 0.155933 0.0954607
-0.308304 0.182874 0.0937003
-0.241762 0.117254 0.00942635
-0.253188 0.122243 0.00943062
-0.267044 0.127065 0.00943471
-0.311287 0.151868 0.00944735
-0.32198 0.252167 0.0094502
-0.0856029 0.360845 0.107891
-0.164941 0.285793 0.00940392
-0.137492 0.522279 0.178748
-0.155007 0.478553 0.132188
-0.177342 0.413045 0.0861506
-0.201593 0.330412 0.00941513
-0.289393 0.294147 0.00944041
-0.244653 0.492656 0.162261
-0.220404 0.531414 0.22274
-0.256696 0.364774 0.0276446
-0.245288 0.331532 0.00942777
-0.224336 0.645926 0.327314
-0.126548 0.679748 0.300001
-0.181187 0.697263 0.469121
-0.110767 0.725378 0.437807
-0.130783 0.689974 0.578279
-0.0525678 0.661468 0.650254
-0.0575536 0.712212 0.617304
-0.0172598 0.700661 0.615058
-0.0571816 0.739984 0.539032
-0.125272 0.323319 0.0586474
-0.189466 0.371728 0.0477829
-4.18656e-05 0.705601 0.620453
0.0181195 0.711489 0.61172
0.0181195 0.722021 0.593543
-4.18656e-05 0.726127 0.583796
-0.018205 0.719962 0.592389
-0.0182067 0.709971 0.610866
-0.0201078 0.753276 0.624855
-0.020106 0.765296 0.609791
-0.00332773 0.772246 0.60302
0.0134488 0.766965 0.611161
0.0134488 0.754539 0.625892
-0.00332773 0.747799 0.63282
-0.0221939 0.795002 0.659522
-0.0221922 0.812438 0.655939
-0.00643381 0.821375 0.655245
0.00932451 0.812818 0.657915
0.00932451 0.795294 0.661049
-0.00643205 0.786411 0.661964
-0.0307825 0.80825 0.700005
-0.0307807 0.822931 0.707623
-0.0158019 0.829782 0.71236
-0.00082503 0.822036 0.709294
-0.000823268 0.807545 0.701322
-0.0158019 0.800606 0.696765
-0.0329327 0.786437 0.737627
-0.0329309 0.792832 0.751687
-0.0185699 0.795124 0.759122
-0.00420881 0.79118 0.752413
-0.00420881 0.785115 0.738209
-0.0185699 0.782661 0.730856
-0.0352146 0.749544 0.750825
-0.0352111 0.745821 0.764825
-0.0213502 0.743047 0.771575
-0.00748935 0.744153 0.764359
-0.00749117 0.748189 0.750446
-0.021352 0.750805 0.743659
-0.0375144 0.720407 0.733397
-0.0375108 0.709382 0.741427
-0.024063 0.703339 0.7447
-0.0106168 0.708415 0.740063
-0.0106186 0.719615 0.732276
-0.0240665 0.725565 0.728885
-0.0398035 0.711692 0.700329
-0.0397999 0.698816 0.699809
-0.0266991 0.69242 0.69867
-0.0136019 0.698903 0.698189
-0.0136037 0.711765 0.698983
-0.0267027 0.718161 0.699983
-0.0421531 0.723715 0.667432
-0.0421513 0.714536 0.659376
-0.0293478 0.710515 0.654712
-0.0165442 0.715594 0.658201
-0.016546 0.724603 0.666448
-0.0293495 0.728705 0.671014
-0.0444795 0.759877 0.646565
-0.0444778 0.757773 0.635154
-0.0319305 0.757537 0.629301
-0.0193833 0.759293 0.634892
-0.0193851 0.761166 0.646345
-0.0319323 0.761516 0.652171
-0.0468327 0.801549 0.652735
-0.0468309 0.80674 0.642975
-0.034508 0.810054 0.638481
-0.0221833 0.808075 0.643703
-0.0221833 0.802689 0.653358
-0.034508 0.799475 0.657897
-0.0492232 0.830627 0.684049
-0.0492215 0.840335 0.679901
-0.0370943 0.8455 0.678568
-0.0249654 0.840911 0.681288
-0.0249654 0.831123 0.685239
-0.0370943 0.826003 0.686669
-0.0426248 0.834962 0.688584
-0.0426248 0.840314 0.686834
-0.0359569 0.843108 0.686322
-0.029289 0.840538 0.687532
-0.029289 0.835168 0.689227
-0.0359569 0.832384 0.689766
3 389 388 394
3 132 127 128
3 132 129 130
3 132 128 129
3 390 389 394
3 393 392 394
3 132 131 123
3 132 125 126
3 387 386 394
3 391 390 394
3 392 391 394
3 132 130 131
3 132 126 127
3 388 387 394
3 386 385 394
3 132 124 125
3 132 123 124
3 385 393 394
3 392 382 391
3 382 383 391
3 129 121 120
3 123 118 124
3 118 100 124
3 130 120 131
3 391 383 384
3 366 365 386
3 389 370 368
3 120 119 131
3 125 101 103
3 131 119 123
3 119 118 123
3 385 381 393
3 385 380 381
3 390 384 370
3 129 120 130
3 126 103 105
3 125 124 100
3 393 381 382
3 393 382 392
3 365 380 385
3 385 386 365
3 128 122 121
3 127 105 122
3 388 368 366
3 473 461 491
3 507 511 527
3 493 494 496
3 473 483 482
3 194 267 266
3 248 252 253
3 235 206 238
3 235 234 206
3 221 224 225
3 231 229 219
3 193 254 263
3 257 262 267
3 481 482 480
3 487 490 489
3 516 512 449
3 527 511 516
3 496 501 502
3 498 502 501
3 486 485 474
3 282 257 244
3 193 249 253
3 231 232 229
3 220 223 224
3 241 244 245
3 248 247 251
3 238 228 227
3 476 479 478
3 493 496 495
3 503 502 498
3 487 484 478
3 491 483 473
3 479 480 482
3 497 501 496
3 478 484 474
3 218 228 238
3 224 223 229
3 243 245 250
3 220 219 229
3 222 225 227
3 231 234 235
3 194 263 267
3 477 480 479
3 474 484 486
3 449 512 505
3 502 503 504
3 492 495 507
3 505 504 500
3 484 487 486
3 266 267 262
3 251 250 245
3 246 250 251
3 219 230 231
3 226 227 228
3 245 243 242
3 282 283 262
3 238 206 218
3 491 461 490
3 461 489 490
3 500 504 503
3 515 516 449
3 595 601 602
3 588 594 595
3 580 586 587
3 572 578 579
3 564 570 571
3 556 562 563
3 548 554 555
3 540 546 547
3 529 538 539
3 530 537 538
3 539 545 540
3 547 553 554
3 555 561 562
3 563 569 564
3 571 577 578
3 579 585 586
3 587 593 588
3 594 600 601
3 596 602 603
3 589 595 596
3 581 587 582
3 573 579 580
3 565 571 572
3 557 563 558
3 549 555 556
3 541 547 548
3 528 539 534
3 531 536 537
3 538 544 545
3 546 552 553
3 554 560 561
3 562 568 569
3 570 576 577
3 578 584 585
3 586 592 593
3 605 604 603
3 597 603 604
3 590 596 597
3 582 588 589
3 574 580 581
3 566 572 573
3 558 564 565
3 550 556 557
3 542 548 549
3 534 540 541
3 532 535 536
3 537 543 544
3 545 551 546
3 553 559 560
3 561 567 568
3 569 575 570
3 577 583 584
3 585 591 592
3 593 599 594
3 598 604 605
3 591 597 598
3 583 589 590
3 575 581 576
3 567 573 574
3 559 565 566
3 551 557 552
3 543 549 550
3 535 541 542
3 533 534 535
3 536 542 543
3 544 550 551
3 552 558 559
3 560 566 567
3 568 574 575
3 576 582 583
3 584 590 591
3 592 598 599
3 599 605 600
3 525 524 532
3 485 486 295
3 525 280 274
3 520 518 517
3 515 449 447
3 450 500 499
3 499 466 450
3 492 464 452
3 489 488 295
3 460 473 472
3 450 466 451
3 455 456 433
3 447 446 438
3 437 436 425
3 432 430 428
3 424 425 416
3 420 288 419
3 405 406 412
3 143 145 404
3 395 340 341
3 396 373 375
3 364 379 380
3 374 343 331
3 331 375 373
3 366 368 367
3 360 94 359
3 353 347 348
3 348 347 346
3 337 339 335
3 325 333 329
3 330 56 28
3 322 323 311
3 43 318 312
3 310 300 301
3 301 300 297
3 295 13 294
3 295 14 13
3 15 231 230
3 272 274 280
3 271 268 269
3 192 194 266
3 248 249 195
3 195 211 248
3 197 209 242
3 231 15 233
3 215 219 220
3 214 15 213
3 0 15 214
3 201 204 205
3 181 180 196
3 184 185 167
3 176 174 175
3 171 162 166
3 164 165 163
3 154 155 146
3 140 142 143
3 139 138 137
3 134 108 107
3 120 71 112
3 112 111 113
3 102 104 105
3 98 91 72
3 89 92 93
3 76 84 83
3 76 77 73
3 61 67 68
3 55 54 61
3 57 58 54
3 52 53 27
3 43 42 44
3 22 24 34
3 19 24 22
3 16 17 13
3 4 6 7
3 2 4 5
3 19 3 5
3 9 11 28
3 30 32 37
3 41 46 44
3 53 52 25
3 59 49 34
3 49 59 63
3 65 68 66
3 79 78 80
3 88 87 84
3 72 40 97
3 38 47 104
3 108 58 71
3 100 118 117
3 110 108 134
3 138 68 67
3 142 144 145
3 155 156 148
3 163 4 164
3 158 160 169
3 172 174 176
3 168 169 180
3 183 182 191
3 176 177 201
3 190 196 211
3 213 215 216
3 230 219 215
3 208 239 240
3 211 247 248
3 256 260 261
3 259 258 270
3 275 276 189
3 278 281 279
3 286 285 284
3 294 13 17
3 300 298 297
3 310 311 302
3 45 319 318
3 305 327 326
3 330 304 328
3 332 333 325
3 339 338 335
3 320 345 317
3 81 82 351
3 355 357 356
3 354 361 360
3 315 316 362
3 376 111 69
3 379 378 377
3 395 375 331
3 396 395 400
3 341 339 401
3 401 400 341
3 402 403 409
3 418 409 410
3 426 417 416
3 433 431 430
3 438 423 441
3 449 446 447
3 456 457 434
3 457 467 285
3 469 284 285
3 471 475 470
3 462 237 236
3 493 465 494
3 448 500 450
3 510 509 506
3 441 517 514
3 274 270 518
3 520 519 525
3 470 485 295
3 277 528 533
3 531 530 281
3 281 280 531
3 345 344 316
3 523 522 277
3 518 520 274
3 509 515 513
3 508 258 255
3 499 498 466
3 240 239 463
3 463 464 240
3 470 474 485
3 475 474 470
3 295 294 284
3 455 460 459
3 445 451 436
3 407 444 443
3 285 286 434
3 428 422 418
3 419 421 420
3 404 405 411
3 141 143 403
3 399 400 401
3 397 372 373
3 381 376 343
3 377 113 111
3 368 370 369
3 358 364 363
3 357 360 359
3 349 352 353
3 345 320 349
3 338 341 340
3 333 334 328
3 291 327 305
3 311 324 303
3 318 317 313
3 307 309 308
3 300 302 298
3 293 11 10
3 284 287 286
3 278 275 273
3 269 270 274
3 184 265 268
3 256 255 258
3 210 246 211
3 205 218 206
3 217 226 218
3 1 214 212
3 198 208 209
3 173 199 198
3 150 188 189
3 170 171 173
3 174 165 164
3 163 6 4
3 160 154 161
3 153 154 144
3 8 140 141
3 136 137 134
3 104 106 122
3 92 89 91
3 48 107 106
3 98 100 99
3 89 74 72
3 77 83 80
3 58 57 70
3 62 59 60
3 50 59 34
3 25 20 53
3 31 33 48
3 37 39 40
3 16 23 30
3 16 18 22
3 6 8 9
3 2 3 0
3 18 0 3
3 7 9 26
3 29 30 37
3 31 47 38
3 27 26 54
3 54 26 57
3 62 64 63
3 57 69 70
3 77 46 73
3 80 83 85
3 94 95 93
3 98 99 91
3 47 48 106
3 116 115 94
3 122 106 109
3 49 63 136
3 136 63 64
3 144 146 147
3 156 157 150
3 162 153 152
3 172 166 165
3 178 2 1
3 157 187 188
3 180 179 198
3 199 207 208
3 0 12 15
3 215 220 216
3 213 15 215
3 207 237 239
3 211 246 247
3 184 183 264
3 268 265 259
3 276 275 277
3 157 159 186
3 291 293 292
3 301 297 296
3 306 307 301
3 317 316 315
3 321 322 310
3 303 326 327
3 323 332 324
3 333 332 335
3 343 342 330
3 350 351 352
3 358 344 346
3 364 365 363
3 371 372 322
3 378 358 356
3 370 384 371
3 397 396 399
3 10 141 402
3 403 404 410
3 417 410 411
3 290 408 419
3 431 420 421
3 435 429 427
3 151 189 444
3 435 453 454
3 452 464 463
3 458 471 470
3 470 295 468
3 463 239 237
3 498 497 466
3 514 513 439
3 518 508 514
3 277 522 276
3 443 442 415
3 530 529 279
3 528 277 279
3 524 533 532
3 527 510 506
3 519 521 525
3 443 521 519
3 508 509 513
3 492 526 506
3 452 493 492
3 488 236 14
3 476 475 471
3 458 468 467
3 456 459 458
3 448 450 445
3 440 439 438
3 428 429 432
3 427 418 417
3 419 422 421
3 415 414 412
3 147 149 406
3 401 398 399
3 375 395 396
3 380 377 376
3 376 342 343
3 367 369 314
3 354 86 95
3 352 86 353
3 352 85 86
3 319 350 349
3 334 340 331
3 335 332 323
3 325 329 305
3 326 303 324
3 320 317 318
3 36 312 306
3 298 302 303
3 297 284 294
3 282 256 261
3 281 273 271
3 186 271 273
3 265 264 260
3 209 256 282
3 209 241 242
3 15 14 236
3 216 221 222
3 213 212 214
3 178 1 212
3 177 178 202
3 192 191 193
3 167 168 181
3 175 164 4
3 169 160 161
3 161 154 153
3 152 153 142
3 139 66 68
3 68 138 139
3 137 138 133
3 133 67 58
3 118 114 116
3 70 69 111
3 102 97 40
3 88 90 93
3 74 89 90
3 80 82 81
3 41 73 46
3 62 65 66
3 51 60 59
3 7 27 53
3 24 25 50
3 35 37 41
3 23 31 32
3 18 19 22
3 8 10 11
3 5 3 2
3 16 12 0
3 20 25 24
3 21 29 35
3 44 42 41
3 51 50 25
3 52 27 55
3 59 62 63
3 54 58 67
3 46 77 78
3 86 85 83
3 83 84 86
3 96 95 86
3 39 38 104
3 71 70 112
3 119 112 114
3 110 134 133
3 137 136 139
3 146 148 149
3 157 156 158
3 165 166 163
3 170 161 162
3 172 176 173
3 182 183 184
3 191 190 195
3 202 203 204
3 202 212 213
3 204 217 218
3 233 236 237
3 243 210 242
3 195 249 193
3 183 192 266
3 185 268 271
3 277 275 278
3 41 40 72
3 289 291 290
3 298 287 284
3 305 304 293
3 312 313 307
3 309 314 321
3 329 328 304
3 328 331 330
3 335 338 334
3 69 56 330
3 45 79 350
3 353 86 354
3 360 95 94
3 362 363 365
3 371 374 373
3 378 379 364
3 331 340 395
3 398 336 323
3 337 336 398
3 149 151 407
3 416 411 412
3 424 414 415
3 431 286 288
3 438 437 424
3 449 448 446
3 455 432 429
3 429 454 455
3 466 465 452
3 468 295 469
3 469 467 468
3 477 476 471
3 454 462 488
3 497 494 465
3 506 255 240
3 513 515 447
3 518 270 258
3 444 189 276
3 521 522 523
3 532 531 280
3 277 533 524
3 532 280 525
3 524 525 523
3 277 524 523
3 442 519 517
3 509 510 515
3 506 240 464
3 466 497 465
3 461 473 460
3 473 481 472
3 459 472 471
3 469 295 284
3 453 463 462
3 452 453 435
3 446 445 437
3 436 435 426
3 430 421 422
3 422 419 408
3 406 407 413
3 145 147 405
3 398 401 337
3 323 397 398
3 383 374 371
3 359 94 115
3 369 371 322
3 344 358 363
3 360 361 95
3 82 85 352
3 345 349 348
3 330 342 69
3 336 337 335
3 325 324 332
3 291 289 299
3 322 311 310
3 313 315 314
3 21 306 296
3 21 296 17
3 290 288 289
3 15 230 215
3 281 271 272
3 274 272 269
3 264 261 260
3 264 266 261
3 209 240 255
3 210 243 246
3 233 207 199
3 216 220 221
3 202 213 203
3 200 205 206
3 180 197 196
3 167 185 186
3 175 2 178
3 172 173 171
3 163 152 6
3 160 155 154
3 140 8 6
3 64 66 139
3 135 107 48
3 121 109 71
3 114 113 115
3 108 110 58
3 97 102 103
3 92 94 93
3 76 75 84
3 73 72 74
3 62 66 64
3 55 60 51
3 26 28 56
3 34 49 48
3 36 35 42
3 31 23 22
3 16 22 23
3 12 13 15
3 13 14 15
3 0 1 2
3 7 5 4
3 17 16 21
3 16 29 21
3 32 38 39
3 33 34 48
3 53 20 5
3 51 59 50
3 60 61 65
3 57 56 69
3 44 78 79
3 87 86 84
3 95 96 93
3 101 100 98
3 107 108 109
3 91 99 117
3 58 110 133
3 136 135 49
3 64 139 136
3 148 150 151
3 158 156 155
3 167 159 158
3 4 2 175
3 169 170 179
3 182 181 190
3 173 200 199
3 173 176 200
3 196 197 210
3 214 1 0
3 203 216 217
3 216 222 226
3 234 233 199
3 242 210 197
3 256 259 260
3 266 283 261
3 273 275 188
3 273 281 278
3 289 288 287
3 288 286 287
3 299 289 287
3 304 28 11
3 313 309 307
3 318 319 320
3 327 299 303
3 311 323 324
3 323 336 335
3 339 341 338
3 81 351 350
3 346 347 353
3 363 362 316
3 369 321 314
3 378 115 113
3 382 343 374
3 323 322 372
3 401 339 337
3 408 290 292
3 417 411 416
3 288 290 419
3 427 429 428
3 433 434 286
3 415 442 441
3 451 452 436
3 454 461 460
3 467 469 285
3 472 481 477
3 461 454 488
3 452 465 493
3 509 508 506
3 510 527 515
3 443 444 522
3 523 525 521
3 530 279 281
3 529 528 279
3 391 384 390
3 366 386 387
3 389 368 388
3 125 103 126
3 390 370 389
3 126 105 127
3 125 100 101
3 128 121 129
3 127 122 128
3 388 366 387
3 507 527 526
3 473 482 481
3 248 253 249
3 221 225 222
3 193 263 194
3 257 267 263
3 257 263 254
3 257 254 253
3 257 253 252
3 257 252 251
3 481 480 477
3 487 489 486
3 527 516 515
3 496 502 507
3 496 507 495
3 498 501 497
3 282 244 241
3 193 253 254
3 220 224 221
3 241 245 242
3 248 251 252
3 238 227 225
3 238 225 224
3 476 478 475
3 493 495 492
3 503 498 499
3 487 478 479
3 487 479 491
3 487 491 490
3 479 482 483
3 479 483 491
3 497 496 494
3 478 474 475
3 224 229 232
3 224 232 235
3 224 235 238
3 243 250 246
3 220 229 223
3 222 227 226
3 231 235 232
3 477 479 476
3 449 505 448
3 502 504 505
3 502 505 512
3 502 512 516
3 502 516 511
3 502 511 507
3 492 507 526
3 505 500 448
3 266 262 283
3 251 245 244
3 251 244 257
3 246 251 247
3 226 228 218
3 282 262 257
3 500 503 499
3 595 602 596
3 588 595 589
3 580 587 581
3 572 579 573
3 564 571 565
3 556 563 557
3 548 555 549
3 540 547 541
3 529 539 528
3 530 538 529
3 539 540 534
3 547 554 548
3 555 562 556
3 563 564 558
3 571 578 572
3 579 586 580
3 587 588 582
3 594 601 595
3 596 603 597
3 589 596 590
3 581 582 576
3 573 580 574
3 565 572 566
3 557 558 552
3 549 556 550
3 541 548 542
3 528 534 533
3 531 537 530
3 538 545 539
3 546 553 547
3 554 561 555
3 562 569 563
3 570 577 571
3 578 585 579
3 586 593 587
3 605 603 602
3 605 602 601
3 605 601 600
3 597 604 598
3 590 597 591
3 582 589 583
3 574 581 575
3 566 573 567
3 558 565 559
3 550 557 551
3 542 549 543
3 534 541 535
3 532 536 531
3 537 544 538
3 545 546 540
3 553 560 554
3 561 568 562
3 569 570 564
3 577 584 578
3 585 592 586
3 593 594 588
3 598 605 599
3 591 598 592
3 583 590 584
3 575 576 570
3 567 574 568
3 559 566 560
3 551 552 546
3 543 550 544
3 535 542 536
3 533 535 532
3 536 543 537
3 544 551 545
3 552 559 553
3 560 567 561
3 568 575 569
3 576 583 577
3 584 591 585
3 592 599 593
3 599 600 594
3 525 274 520
3 520 517 519
3 489 295 486
3 460 472 459
3 450 451 445
3 455 433 432
3 447 438 439
3 437 425 424
3 424 416 414
3 405 412 411
3 143 404 403
3 395 341 400
3 364 380 365
3 374 331 373
3 366 367 362
3 348 346 344
3 348 344 345
3 330 28 304
3 43 312 36
3 310 301 308
3 272 280 281
3 271 269 272
3 231 233 234
3 201 205 200
3 181 196 190
3 184 167 182
3 176 175 177
3 171 166 172
3 154 146 144
3 140 143 141
3 134 107 135
3 120 112 119
3 112 113 114
3 102 105 103
3 89 93 90
3 76 83 77
3 61 68 65
3 55 61 60
3 43 44 45
3 22 34 33
3 16 13 12
3 19 5 20
3 9 28 26
3 79 80 81
3 88 84 75
3 88 75 74
3 72 97 98
3 108 71 109
3 100 117 99
3 138 67 133
3 142 145 143
3 155 148 146
3 158 169 168
3 168 180 181
3 183 191 192
3 176 201 200
3 190 211 195
3 213 216 203
3 208 240 209
3 259 270 269
3 275 189 188
3 294 17 296
3 310 302 300
3 45 318 43
3 355 356 346
3 354 360 357
3 354 357 355
3 315 362 367
3 376 69 342
3 379 377 380
3 396 400 399
3 402 409 408
3 418 410 417
3 426 416 425
3 433 430 432
3 438 441 440
3 456 434 433
3 457 285 434
3 462 236 488
3 441 514 440
3 345 316 317
3 508 255 506
3 455 459 456
3 445 436 437
3 407 443 413
3 428 418 427
3 404 411 410
3 141 403 402
3 397 373 396
3 381 343 382
3 377 111 376
3 368 369 367
3 357 359 356
3 349 353 348
3 338 340 334
3 333 328 329
3 311 303 302
3 318 313 312
3 307 308 301
3 293 10 292
3 184 268 185
3 256 258 259
3 198 209 197
3 173 198 179
3 150 189 151
3 170 173 179
3 174 164 175
3 153 144 142
3 8 141 10
3 136 134 135
3 104 122 105
3 92 91 116
3 89 72 91
3 77 80 78
3 58 70 71
3 31 48 47
3 37 40 41
3 16 30 29
3 6 9 7
3 18 3 19
3 7 26 27
3 29 37 35
3 31 38 32
3 27 54 55
3 80 85 82
3 47 106 104
3 116 94 92
3 122 109 121
3 144 147 145
3 156 150 148
3 162 152 163
3 162 163 166
3 172 165 174
3 157 188 150
3 180 198 197
3 199 208 198
3 207 239 208
3 184 264 265
3 268 259 269
3 157 186 187
3 291 292 290
3 306 301 296
3 317 315 313
3 321 310 308
3 343 330 331
3 350 352 349
3 358 346 356
3 378 356 359
3 370 371 369
3 397 399 398
3 10 402 292
3 403 410 409
3 431 421 430
3 435 427 426
3 151 444 407
3 435 454 429
3 452 463 453
3 458 470 468
3 463 237 462
3 514 439 440
3 518 514 517
3 443 415 413
3 527 506 526
3 443 519 442
3 508 513 514
3 492 506 464
3 488 14 295
3 458 467 457
3 456 458 457
3 448 445 446
3 427 417 426
3 415 412 413
3 147 406 405
3 380 376 381
3 367 314 315
3 354 95 361
3 319 349 320
3 334 331 328
3 325 305 326
3 326 324 325
3 36 306 21
3 298 303 299
3 297 294 296
3 282 261 283
3 186 273 187
3 265 260 259
3 209 282 241
3 15 236 233
3 178 212 202
3 177 202 201
3 192 193 194
3 167 181 182
3 169 161 170
3 161 153 162
3 152 142 140
3 137 133 134
3 118 116 117
3 70 111 112
3 102 40 39
3 88 93 96
3 88 96 87
3 74 90 88
3 24 50 34
3 35 41 42
3 23 32 30
3 8 11 9
3 16 0 18
3 20 24 19
3 21 35 36
3 51 25 52
3 52 55 51
3 54 67 61
3 46 78 44
3 96 86 87
3 39 104 102
3 119 114 118
3 146 149 147
3 157 158 159
3 170 162 171
3 191 195 193
3 202 204 201
3 204 218 205
3 233 237 207
3 183 266 264
3 185 271 186
3 277 278 279
3 41 72 73
3 298 284 297
3 305 293 291
3 312 307 306
3 309 321 308
3 329 304 305
3 335 334 333
3 45 350 319
3 362 365 366
3 371 373 372
3 378 364 358
3 149 407 406
3 416 412 414
3 424 415 423
3 431 288 420
3 438 424 423
3 466 452 451
3 513 447 439
3 518 258 508
3 444 276 522
3 442 517 441
3 459 471 458
3 453 462 454
3 452 435 436
3 446 437 438
3 436 426 425
3 430 422 428
3 422 408 409
3 422 409 418
3 406 413 412
3 145 405 404
3 383 371 384
3 359 115 378
3 369 322 321
3 82 352 351
3 291 299 327
3 313 314 309
3 209 255 256
3 200 206 199
3 167 186 159
3 175 178 177
3 140 6 152
3 135 48 49
3 121 71 120
3 114 115 116
3 97 103 101
3 73 74 75
3 73 75 76
3 26 56 57
3 36 42 43
3 31 22 33
3 32 39 37
3 53 5 7
3 60 65 62
3 44 79 45
3 101 98 97
3 107 109 106
3 91 117 116
3 148 151 149
3 158 155 160
3 167 158 168
3 169 179 180
3 182 190 191
3 196 210 211
3 203 217 204
3 216 226 217
3 234 199 206
3 273 188 187
3 299 287 298
3 304 11 293
3 81 350 79
3 346 353 354
3 346 354 355
3 363 316 344
3 378 113 377
3 382 374 383
3 323 372 397
3 408 292 402
3 433 286 431
3 415 441 423
3 454 460 455
3 472 477 471
3 461 488 489
3 443 522 521
