ply
format ascii 1.0
comment flat triangulation, z coors all zero
element vertex 27
property float x
property float y
property float z
element face 36
property list uchar int vertex_indices
end_header
2.2388 1.1677 0.0
3.1875 -1.1751 0.0
5.2913 1.5175 0.0
0 0 0.0
2.7152 3.262 0.0
0 2.234 0.0
5.0772 4.6711 0.0
8.0837 3.9449 0.0
1.0836 4.2745 0.0
2.6002 5.7072 0.0
7.1017 6.5422 0.0
-0.9809 5.8949 0.0
4.6717 7.0524 0.0
9.2364 6.2858 0.0
10.5142 5.5233 0.0
6.217 9.0303 0.0
9.3244 8.2675 0.0
11.1587 7.1497 0.0
12.2741 5.9949 0.0
9.8445 11.21 0.0
12.3893 9.3853 0.0
13.2147 7.4395 0.0
13.4435 12.242 0.0
15.5251 6.1084 0.0
14.727 8.5579 0.0
15.013 10.8288 0.0
17.4935 9.0266 0.0
3 0 1 2
3 3 1 0
3 4 0 2
3 3 0 5
3 5 0 4
3 4 2 6
3 6 2 7
3 5 4 8
3 4 6 9
3 4 9 8
3 6 7 10
3 8 11 5
3 6 12 9
3 6 10 12
3 8 9 11
3 13 10 7
3 13 7 14
3 12 10 15
3 13 16 10
3 16 15 10
3 13 14 17
3 13 17 16
3 17 14 18
3 16 19 15
3 20 16 17
3 20 19 16
3 17 18 21
3 17 21 20
3 20 22 19
3 21 18 23
3 21 24 20
3 20 25 22
3 21 23 24
3 20 24 25
3 24 23 26
3 24 26 25
